# xmcd
#
# Track frame offsets: 
#        150
#        45927
#        72545
#        105805
#        137592
#
# Disc length: 2186 seconds
#
# Revision: 3
# Processed by: cddbd v1.5.2PL0 Copyright (c) Steve Scherf et al.
# Submitted via: ExactAudioCopy v0.95b4
#
DISCID=37088805
DTITLE=Herbie Mann - Bobby Jaspar - Flute Flight
DYEAR=1957
DGENRE=Jazz
TTITLE0=Tutti Flutie
TTITLE1=Bo-Do
TTITLE2=Flute Bass Blues
TTITLE3=Flute Bob
TTITLE4=Solacium
EXTD=YEAR: 2002
EXTT0=
EXTT1=
EXTT2=
EXTT3=
EXTT4=
PLAYORDER=
